<?xml version="1.0" encoding="utf-8" standalone="no"?>
<!DOCTYPE svg PUBLIC "-//W3C//DTD SVG 1.1//EN"
  "http://www.w3.org/Graphics/SVG/1.1/DTD/svg11.dtd">
<!-- Created with matplotlib (https://matplotlib.org/) -->
<svg height="345.6pt" version="1.1" viewBox="0 0 460.8 345.6" width="460.8pt" xmlns="http://www.w3.org/2000/svg" xmlns:xlink="http://www.w3.org/1999/xlink">
 <defs>
  <style type="text/css">
*{stroke-linecap:butt;stroke-linejoin:round;}
  </style>
 </defs>
 <g id="figure_1">
  <g id="patch_1">
   <path d="M 0 345.6 
L 460.8 345.6 
L 460.8 0 
L 0 0 
z
" style="fill:#ffffff;"/>
  </g>
  <g id="axes_1">
   <g id="patch_2">
    <path d="M 57.6 210.24 
L 414.72 210.24 
L 414.72 138.816 
L 57.6 138.816 
z
" style="fill:#ffffff;"/>
   </g>
   <g id="Quiver_1">
    <path clip-path="url(#pc00bd2552c)" d="M 248.247241 183.097963 
L 258.286951 173.926169 
L 256.479097 173.231416 
L 264.626394 169.307922 
L 259.984243 177.06825 
L 259.455333 175.205114 
L 249.415623 184.376908 
L 248.247241 183.097963 
" style="fill:#0000ff;"/>
    <path clip-path="url(#pc00bd2552c)" d="M 261.095582 184.564038 
L 269.513055 181.691336 
L 268.133828 180.331647 
L 277.170296 179.993279 
L 269.812347 185.249973 
L 270.072561 183.330778 
L 261.655088 186.20348 
L 261.095582 184.564038 
" style="fill:#0000ff;"/>
    <path clip-path="url(#pc00bd2552c)" d="M 251.836108 173.661952 
L 259.836652 173.781583 
L 258.996505 172.036541 
L 267.618119 174.764179 
L 258.918806 177.232819 
L 259.810752 175.513676 
L 251.810208 175.394045 
L 251.836108 173.661952 
" style="fill:#0000ff;"/>
    <path clip-path="url(#pc00bd2552c)" d="M 240.594051 188.65862 
L 249.479377 184.01794 
L 247.909683 182.883443 
L 256.78999 181.176872 
L 250.315553 187.489867 
L 250.281334 185.553414 
L 241.396007 190.194094 
L 240.594051 188.65862 
" style="fill:#0000ff;"/>
    <path clip-path="url(#pc00bd2552c)" d="M 251.62844 195.629047 
L 259.760226 194.11258 
L 258.591189 192.568438 
L 267.582188 193.534966 
L 259.543907 197.677223 
L 260.077798 195.815508 
L 251.946013 197.331975 
L 251.62844 195.629047 
" style="fill:#0000ff;"/>
    <path clip-path="url(#pc00bd2552c)" d="M 231.819654 188.719201 
L 241.280939 195.507568 
L 241.587051 193.595157 
L 247.109689 200.755654 
L 238.557488 197.817608 
L 240.271084 196.915052 
L 230.8098 190.126685 
L 231.819654 188.719201 
" style="fill:#0000ff;"/>
    <path clip-path="url(#pc00bd2552c)" d="M 236.317742 196.194946 
L 244.327636 195.784352 
L 243.373946 194.098678 
L 252.157044 196.250289 
L 243.639993 199.288723 
L 244.416318 197.514367 
L 236.406424 197.924961 
L 236.317742 196.194946 
" style="fill:#0000ff;"/>
    <path clip-path="url(#pc00bd2552c)" d="M 224.002283 183.037098 
L 233.536496 190.109698 
L 233.872924 188.202386 
L 239.281211 195.449639 
L 230.776722 192.376219 
L 232.504429 191.500975 
L 222.970216 184.428375 
L 224.002283 183.037098 
" style="fill:#0000ff;"/>
    <path clip-path="url(#pc00bd2552c)" d="M 217.48728 193.938761 
L 225.624314 195.486857 
L 225.097199 193.623212 
L 233.120359 197.794681 
L 224.125903 198.728497 
L 225.300549 197.188618 
L 217.163515 195.640523 
L 217.48728 193.938761 
" style="fill:#0000ff;"/>
    <path clip-path="url(#pc00bd2552c)" d="M 220.48861 173.662689 
L 228.48855 173.596494 
L 227.608103 171.871433 
L 236.290739 174.398109 
L 227.651102 177.068115 
L 228.502883 175.328721 
L 220.502944 175.394916 
L 220.48861 173.662689 
" style="fill:#0000ff;"/>
    <path clip-path="url(#pc00bd2552c)" d="M 212.559389 178.36216 
L 220.886753 180.856048 
L 220.553998 178.948093 
L 228.105861 183.922186 
L 219.063062 183.926492 
L 220.389774 182.515515 
L 212.06241 180.021626 
L 212.559389 178.36216 
" style="fill:#0000ff;"/>
    <path clip-path="url(#pc00bd2552c)" d="M 222.920081 164.667019 
L 232.805738 156.162076 
L 231.01938 155.413781 
L 239.279927 151.734704 
L 234.408687 159.353318 
L 233.935507 157.475254 
L 224.04985 165.980197 
L 222.920081 164.667019 
" style="fill:#0000ff;"/>
    <path clip-path="url(#pc00bd2552c)" d="M 211.166442 169.118018 
L 219.29648 167.612199 
L 218.129339 166.066624 
L 227.119145 167.044185 
L 219.075787 171.176573 
L 219.611962 169.315515 
L 211.481925 170.821335 
L 211.166442 169.118018 
" style="fill:#0000ff;"/>
    <path clip-path="url(#pc00bd2552c)" d="M 230.827569 158.920598 
L 240.243379 152.307567 
L 238.538966 151.387787 
L 247.12034 148.536076 
L 241.525823 155.640555 
L 241.238998 153.725156 
L 231.823188 160.338187 
L 230.827569 158.920598 
" style="fill:#0000ff;"/>
    <path clip-path="url(#pc00bd2552c)" d="M 217.847083 154.278025 
L 225.919355 153.168565 
L 224.825409 151.570347 
L 233.759979 152.965229 
L 225.533018 156.718807 
L 226.155225 154.884719 
L 218.082953 155.994179 
L 217.847083 154.278025 
" style="fill:#0000ff;"/>
    <path clip-path="url(#pc00bd2552c)" d="M 241.374282 158.848172 
L 250.083003 162.840263 
L 250.017497 160.904616 
L 256.808316 166.875966 
L 247.851935 165.628776 
L 249.361149 164.414983 
L 240.652428 160.422892 
L 241.374282 158.848172 
" style="fill:#0000ff;"/>
    <path clip-path="url(#pc00bd2552c)" d="M 235.539858 150.896294 
L 243.547631 150.530929 
L 242.603433 148.839921 
L 251.374297 151.040872 
L 242.8403 154.031379 
L 243.626587 152.261415 
L 235.618813 152.62678 
L 235.539858 150.896294 
" style="fill:#0000ff;"/>
    <path clip-path="url(#pc00bd2552c)" d="M 249.371885 164.645094 
L 259.062476 172.34123 
L 259.461548 170.446036 
L 264.628179 177.867502 
L 256.229542 174.515616 
L 257.985141 173.697757 
L 248.29455 166.001621 
L 249.371885 164.645094 
" style="fill:#0000ff;"/>
    <path clip-path="url(#pc00bd2552c)" d="M 247.526846 150.797279 
L 255.528479 150.976739 
L 254.701395 149.225467 
L 263.302387 152.017453 
L 254.584869 154.42102 
L 255.489637 152.70859 
L 247.488004 152.52913 
L 247.526846 150.797279 
" style="fill:#0000ff;"/>
    <path clip-path="url(#pc00bd2552c)" d="M 259.104728 168.829855 
L 267.52551 171.71602 
L 267.267812 169.796486 
L 274.618862 175.062823 
L 265.582845 174.712606 
L 266.963854 173.354727 
L 258.543073 170.468562 
L 259.104728 168.829855 
" style="fill:#0000ff;"/>
    <path clip-path="url(#pc00bd2552c)" d="M 79.529005 148.600804 
L 87.528679 148.606196 
L 86.663703 146.873326 
L 95.323383 149.477592 
L 86.660201 152.070184 
L 87.527512 150.338482 
L 79.527837 150.33309 
L 79.529005 148.600804 
" style="fill:#0000ff;"/>
    <path clip-path="url(#pc00bd2552c)" d="M 96.951734 142.335764 
L 104.953416 142.517484 
L 104.126827 140.765979 
L 112.727031 143.56039 
L 104.008836 145.961498 
L 104.914086 144.249324 
L 96.912404 144.067604 
L 96.951734 142.335764 
" style="fill:#0000ff;"/>
    <path clip-path="url(#pc00bd2552c)" d="M 79.528106 142.335541 
L 87.52778 142.332636 
L 86.661007 140.600664 
L 95.323383 143.195948 
L 86.662895 145.797523 
L 87.528409 144.064922 
L 79.528736 144.067827 
L 79.528106 142.335541 
" style="fill:#0000ff;"/>
    <path clip-path="url(#pc00bd2552c)" d="M 79.530143 154.866069 
L 87.529831 154.881977 
L 86.667135 153.147971 
L 95.323383 155.76362 
L 86.6568 158.344821 
L 87.526387 156.61426 
L 79.526699 156.598352 
L 79.530143 154.866069 
" style="fill:#0000ff;"/>
    <path clip-path="url(#pc00bd2552c)" d="M 88.028679 154.811497 
L 96.028353 154.807333 
L 95.161308 153.075497 
L 103.824092 155.669418 
L 95.164013 158.272356 
L 96.029255 156.539619 
L 88.029581 156.543783 
L 88.028679 154.811497 
" style="fill:#0000ff;"/>
    <path clip-path="url(#pc00bd2552c)" d="M 79.527609 161.131331 
L 87.527285 161.123832 
L 86.659518 159.392358 
L 95.323383 161.982667 
L 86.66439 164.589215 
L 87.528909 162.856118 
L 79.529233 162.863617 
L 79.527609 161.131331 
" style="fill:#0000ff;"/>
    <path clip-path="url(#pc00bd2552c)" d="M 79.531983 167.396601 
L 87.531722 167.429502 
L 86.67271 165.693668 
L 95.323383 168.327697 
L 86.651337 170.890483 
L 87.524597 169.161774 
L 79.524859 169.128873 
L 79.531983 167.396601 
" style="fill:#0000ff;"/>
    <path clip-path="url(#pc00bd2552c)" d="M 88.349958 164.724114 
L 96.349631 164.724546 
L 95.483581 162.992212 
L 104.144873 165.591109 
L 95.483301 168.189072 
L 96.349537 166.456832 
L 88.349865 166.456401 
L 88.349958 164.724114 
" style="fill:#0000ff;"/>
    <path clip-path="url(#pc00bd2552c)" d="M 79.526179 173.66186 
L 87.525878 173.641154 
L 86.655254 171.911115 
L 95.323383 174.487117 
L 86.668705 177.107957 
L 87.530362 175.373434 
L 79.530663 175.39414 
L 79.526179 173.66186 
" style="fill:#0000ff;"/>
    <path clip-path="url(#pc00bd2552c)" d="M 89.197234 171.804923 
L 97.196959 171.775483 
L 96.324446 170.046396 
L 104.995383 172.612933 
L 96.343572 175.24322 
L 97.203334 173.507758 
L 89.203609 173.537198 
L 89.197234 171.804923 
" style="fill:#0000ff;"/>
    <path clip-path="url(#pc00bd2552c)" d="M 79.52662 179.927122 
L 87.526309 179.910488 
L 86.656566 178.180006 
L 95.323383 180.76042 
L 86.667372 183.376854 
L 87.529911 181.64277 
L 79.530222 181.659405 
L 79.52662 179.927122 
" style="fill:#0000ff;"/>
    <path clip-path="url(#pc00bd2552c)" d="M 85.15732 177.261815 
L 93.156999 177.272215 
L 92.293108 175.538804 
L 100.951155 178.148492 
L 92.286352 180.735659 
L 93.154747 179.0045 
L 85.155068 178.9941 
L 85.15732 177.261815 
" style="fill:#0000ff;"/>
    <path clip-path="url(#pc00bd2552c)" d="M 79.531303 186.192388 
L 87.531019 186.219007 
L 86.670645 184.483848 
L 95.323383 187.111084 
L 86.653352 189.680679 
L 87.525255 187.951284 
L 79.525539 187.924665 
L 79.531303 186.192388 
" style="fill:#0000ff;"/>
    <path clip-path="url(#pc00bd2552c)" d="M 87.049169 183.555146 
L 95.048844 183.548678 
L 94.181301 181.817092 
L 102.844831 184.408518 
L 94.185503 187.01395 
L 95.050245 185.280964 
L 87.05057 185.287432 
L 87.049169 183.555146 
" style="fill:#0000ff;"/>
    <path clip-path="url(#pc00bd2552c)" d="M 79.528348 192.457646 
L 87.52802 192.456971 
L 86.661731 190.724758 
L 95.323383 193.322456 
L 86.66217 195.921617 
L 87.528167 194.189257 
L 79.528494 194.189933 
L 79.528348 192.457646 
" style="fill:#0000ff;"/>
    <path clip-path="url(#pc00bd2552c)" d="M 84.921773 188.894936 
L 92.921447 188.891122 
L 92.054477 187.159248 
L 100.717148 189.753548 
L 92.056955 192.356107 
L 92.922272 190.623408 
L 84.922599 190.627222 
L 84.921773 188.894936 
" style="fill:#0000ff;"/>
    <path clip-path="url(#pc00bd2552c)" d="M 79.527587 198.72291 
L 87.527263 198.715205 
L 86.659452 196.983754 
L 95.323383 199.57384 
L 86.664457 202.180611 
L 87.528931 200.447491 
L 79.529255 200.455195 
L 79.527587 198.72291 
" style="fill:#0000ff;"/>
    <path clip-path="url(#pc00bd2552c)" d="M 85.596572 193.530197 
L 93.596251 193.541124 
L 92.732475 191.807656 
L 101.39035 194.417913 
L 92.725377 197.00451 
L 93.593885 195.273409 
L 85.594206 195.262482 
L 85.596572 193.530197 
" style="fill:#0000ff;"/>
    <path clip-path="url(#pc00bd2552c)" d="M 114.344 204.988215 
L 122.344056 205.067615 
L 121.495148 203.326818 
L 130.130365 206.01108 
L 121.443572 208.523422 
L 122.326864 206.799817 
L 114.326808 206.720416 
L 114.344 204.988215 
" style="fill:#0000ff;"/>
    <path clip-path="url(#pc00bd2552c)" d="M 106.360418 194.234758 
L 114.360098 194.223811 
L 113.491585 192.492712 
L 122.156565 195.079287 
L 113.498696 197.689566 
L 114.362468 195.956096 
L 106.362789 195.967042 
L 106.360418 194.234758 
" style="fill:#0000ff;"/>
    <path clip-path="url(#pc00bd2552c)" d="M 96.936855 204.988186 
L 104.936646 205.032385 
L 104.080087 203.29534 
L 112.727031 205.941584 
L 104.051374 208.49212 
L 104.927075 206.764645 
L 96.927284 206.720446 
L 96.936855 204.988186 
" style="fill:#0000ff;"/>
    <path clip-path="url(#pc00bd2552c)" d="M 131.747118 204.98821 
L 139.747129 205.062717 
L 138.897156 203.322439 
L 147.534013 206.001419 
L 138.848758 208.519073 
L 139.730996 206.794928 
L 131.730985 206.720421 
L 131.747118 204.98821 
" style="fill:#0000ff;"/>
    <path clip-path="url(#pc00bd2552c)" d="M 124.480309 189.840719 
L 132.480076 189.880097 
L 131.62247 188.143569 
L 140.271007 190.784602 
L 131.596889 193.340365 
L 132.471549 191.612363 
L 124.471782 191.572984 
L 124.480309 189.840719 
" style="fill:#0000ff;"/>
    <path clip-path="url(#pc00bd2552c)" d="M 149.14719 204.988186 
L 157.146982 205.032553 
L 156.29046 203.295489 
L 164.937348 205.941914 
L 156.261638 208.492269 
L 157.137375 206.764812 
L 149.137583 206.720446 
L 149.14719 204.988186 
" style="fill:#0000ff;"/>
    <path clip-path="url(#pc00bd2552c)" d="M 140.245314 189.72063 
L 148.245228 189.7835 
L 147.392725 188.04446 
L 156.033469 190.710877 
L 147.351885 193.241159 
L 148.231614 191.515733 
L 140.231701 191.452863 
L 140.245314 189.72063 
" style="fill:#0000ff;"/>
    <path clip-path="url(#pc00bd2552c)" d="M 166.54501 204.988173 
L 174.544688 204.978707 
L 173.676495 203.247447 
L 182.340996 205.835625 
L 173.682645 208.444302 
L 174.546737 206.710992 
L 166.547059 206.720458 
L 166.54501 204.988173 
" style="fill:#0000ff;"/>
    <path clip-path="url(#pc00bd2552c)" d="M 157.247225 189.196839 
L 165.24757 189.301888 
L 164.404245 187.558379 
L 173.030815 190.270303 
L 164.336014 192.75479 
L 165.224826 191.034025 
L 157.224482 190.928977 
L 157.247225 189.196839 
" style="fill:#0000ff;"/>
    <path clip-path="url(#pc00bd2552c)" d="M 183.951795 204.988176 
L 191.951498 205.010583 
L 191.090211 203.275877 
L 199.744331 205.898557 
L 191.075654 208.472716 
L 191.946646 206.742863 
L 183.946943 206.720456 
L 183.951795 204.988176 
" style="fill:#0000ff;"/>
    <path clip-path="url(#pc00bd2552c)" d="M 172.964329 190.419982 
L 180.965011 190.548785 
L 180.126865 188.802781 
L 188.745348 191.540297 
L 180.043211 193.998967 
L 180.937127 192.280847 
L 172.936444 192.152044 
L 172.964329 190.419982 
" style="fill:#0000ff;"/>
    <path clip-path="url(#pc00bd2552c)" d="M 201.282114 204.99108 
L 209.307949 204.331862 
L 208.302906 202.676293 
L 217.147979 204.556966 
L 208.728327 207.85571 
L 209.449756 206.058334 
L 201.423921 206.717552 
L 201.282114 204.99108 
" style="fill:#0000ff;"/>
    <path clip-path="url(#pc00bd2552c)" d="M 187.731434 192.483278 
L 195.732011 192.605176 
L 194.892358 190.859896 
L 203.5132 193.589976 
L 194.813187 196.056152 
L 195.70562 194.337262 
L 187.705043 194.215363 
L 187.731434 192.483278 
" style="fill:#0000ff;"/>
    <path clip-path="url(#pc00bd2552c)" d="M 218.656066 204.994013 
L 226.708298 204.054188 
L 225.647173 202.433993 
L 234.551439 204.010791 
L 226.24964 207.595812 
L 226.909121 205.774795 
L 218.856888 206.714619 
L 218.656066 204.994013 
" style="fill:#0000ff;"/>
    <path clip-path="url(#pc00bd2552c)" d="M 204.748149 194.704787 
L 212.806272 195.697171 
L 212.15836 193.872005 
L 220.437242 197.509636 
L 211.523149 199.029897 
L 212.594535 197.416468 
L 204.536412 196.424084 
L 204.748149 194.704787 
" style="fill:#0000ff;"/>
    <path clip-path="url(#pc00bd2552c)" d="M 226.969732 198.227341 
L 234.987578 198.775787 
L 234.241671 196.98843 
L 242.705585 200.17189 
L 233.887019 202.173174 
L 234.86936 200.504035 
L 226.851515 199.955589 
L 226.969732 198.227341 
" style="fill:#0000ff;"/>
    <path clip-path="url(#pc00bd2552c)" d="M 209.016767 187.098254 
L 217.040474 187.729797 
L 216.312929 185.934888 
L 224.743765 189.204943 
L 215.905147 191.115724 
L 216.904547 189.456743 
L 208.880839 188.825199 
L 209.016767 187.098254 
" style="fill:#0000ff;"/>
    <path clip-path="url(#pc00bd2552c)" d="M 209.073492 159.838658 
L 217.084793 159.40058 
L 216.125358 157.718169 
L 224.915746 159.839801 
L 216.409111 162.907276 
L 217.179378 161.130282 
L 209.168077 161.56836 
L 209.073492 159.838658 
" style="fill:#0000ff;"/>
    <path clip-path="url(#pc00bd2552c)" d="M 226.012832 149.214138 
L 234.151465 147.656516 
L 232.975135 146.117922 
L 241.970607 147.041903 
L 233.952013 151.222142 
L 234.47709 149.357923 
L 226.338458 150.915545 
L 226.012832 149.214138 
" style="fill:#0000ff;"/>
    <path clip-path="url(#pc00bd2552c)" d="M 259.369332 153.066746 
L 267.38169 152.609093 
L 266.418172 150.929018 
L 275.213686 153.029297 
L 266.714525 156.117421 
L 267.480474 154.338561 
L 259.468117 154.796214 
L 259.369332 153.066746 
" style="fill:#0000ff;"/>
    <path clip-path="url(#pc00bd2552c)" d="M 392.789821 198.722911 
L 400.789509 198.70667 
L 399.919851 196.976146 
L 408.58654 199.556986 
L 399.930401 202.172994 
L 400.793026 200.438953 
L 392.793337 200.455194 
L 392.789821 198.722911 
" style="fill:#0000ff;"/>
    <path clip-path="url(#pc00bd2552c)" d="M 375.386074 204.988175 
L 383.385765 204.971027 
L 382.51591 203.240601 
L 391.182892 205.820458 
L 382.52705 208.437448 
L 383.389478 206.703309 
L 375.389788 206.720457 
L 375.386074 204.988175 
" style="fill:#0000ff;"/>
    <path clip-path="url(#pc00bd2552c)" d="M 392.794436 204.988177 
L 400.794151 205.014564 
L 399.933726 203.27943 
L 408.58654 205.906415 
L 399.916584 208.476261 
L 400.788437 206.746841 
L 392.788722 206.720454 
L 392.794436 204.988177 
" style="fill:#0000ff;"/>
    <path clip-path="url(#pc00bd2552c)" d="M 392.794549 192.457651 
L 400.794267 192.485082 
L 399.934069 190.749836 
L 408.58654 193.377949 
L 399.916249 195.946664 
L 400.788327 194.217358 
L 392.788609 194.189928 
L 392.794549 192.457651 
" style="fill:#0000ff;"/>
    <path clip-path="url(#pc00bd2552c)" d="M 384.549168 192.524376 
L 392.548887 192.551981 
L 391.688726 190.816716 
L 400.341141 193.445017 
L 391.670794 196.013544 
L 392.54291 194.284257 
L 384.543191 194.256653 
L 384.549168 192.524376 
" style="fill:#0000ff;"/>
    <path clip-path="url(#pc00bd2552c)" d="M 392.788938 186.192387 
L 400.788646 186.167991 
L 399.917224 184.438354 
L 408.58654 187.010358 
L 399.933073 189.635189 
L 400.793929 187.900269 
L 392.79422 187.924666 
L 392.788938 186.192387 
" style="fill:#0000ff;"/>
    <path clip-path="url(#pc00bd2552c)" d="M 392.794793 179.927126 
L 400.794519 179.956812 
L 399.93481 178.221323 
L 408.58654 180.851876 
L 399.915525 183.418147 
L 400.788091 181.689086 
L 392.788365 181.6594 
L 392.794793 179.927126 
" style="fill:#0000ff;"/>
    <path clip-path="url(#pc00bd2552c)" d="M 381.204636 184.800901 
L 389.204326 184.783865 
L 388.334496 183.053427 
L 397.001442 185.633404 
L 388.345564 188.250274 
L 389.208016 186.516147 
L 381.208325 186.533184 
L 381.204636 184.800901 
" style="fill:#0000ff;"/>
    <path clip-path="url(#pc00bd2552c)" d="M 392.787606 173.661867 
L 400.78736 173.62517 
L 399.91328 171.896875 
L 408.58654 174.455545 
L 399.937119 177.09368 
L 400.795307 175.357438 
L 392.795552 175.394136 
L 392.787606 173.661867 
" style="fill:#0000ff;"/>
    <path clip-path="url(#pc00bd2552c)" d="M 382.839661 176.833051 
L 390.839334 176.83723 
L 389.974096 175.104491 
L 398.63417 177.707445 
L 389.971382 180.30135 
L 390.83843 178.569516 
L 382.838756 178.565337 
L 382.839661 176.833051 
" style="fill:#0000ff;"/>
    <path clip-path="url(#pc00bd2552c)" d="M 392.794783 167.3966 
L 400.794509 167.426195 
L 399.934781 165.690716 
L 408.58654 168.321172 
L 399.915554 170.88754 
L 400.7881 169.15847 
L 392.788375 169.128874 
L 392.794783 167.3966 
" style="fill:#0000ff;"/>
    <path clip-path="url(#pc00bd2552c)" d="M 385.25727 170.87326 
L 393.256945 170.867323 
L 392.389516 169.135679 
L 401.052875 171.727679 
L 392.393374 174.332537 
L 393.258231 172.599609 
L 385.258556 172.605546 
L 385.25727 170.87326 
" style="fill:#0000ff;"/>
    <path clip-path="url(#pc00bd2552c)" d="M 392.791784 161.13133 
L 400.791457 161.133224 
L 399.925724 159.400733 
L 408.58654 162.001213 
L 399.924493 164.597592 
L 400.791047 162.865511 
L 392.791374 162.863617 
L 392.791784 161.13133 
" style="fill:#0000ff;"/>
    <path clip-path="url(#pc00bd2552c)" d="M 384.878026 164.957498 
L 392.877722 164.938181 
L 392.007398 163.207991 
L 400.675079 165.785498 
L 392.019947 168.404835 
L 392.881905 166.670462 
L 384.882209 166.689779 
L 384.878026 164.957498 
" style="fill:#0000ff;"/>
    <path clip-path="url(#pc00bd2552c)" d="M 392.789034 154.866071 
L 400.78874 154.842568 
L 399.917512 153.112834 
L 408.58654 155.685805 
L 399.93278 158.309671 
L 400.79383 156.574847 
L 392.794124 156.59835 
L 392.789034 154.866071 
" style="fill:#0000ff;"/>
    <path clip-path="url(#pc00bd2552c)" d="M 387.737246 158.948892 
L 395.736947 158.970694 
L 394.875528 157.236053 
L 403.529847 159.858079 
L 394.861365 162.432893 
L 395.732226 160.702974 
L 387.732525 160.681172 
L 387.737246 158.948892 
" style="fill:#0000ff;"/>
    <path clip-path="url(#pc00bd2552c)" d="M 392.792924 148.600805 
L 400.792606 148.613231 
L 399.929155 146.879601 
L 408.58654 149.491481 
L 399.921083 152.076454 
L 400.789916 150.345515 
L 392.790234 150.33309 
L 392.792924 148.600805 
" style="fill:#0000ff;"/>
    <path clip-path="url(#pc00bd2552c)" d="M 386.933183 153.985549 
L 394.932869 153.97051 
L 394.063471 152.239855 
L 402.729772 154.821997 
L 394.07324 157.436705 
L 394.936126 155.702793 
L 386.936439 155.717832 
L 386.933183 153.985549 
" style="fill:#0000ff;"/>
    <path clip-path="url(#pc00bd2552c)" d="M 358.008742 142.335878 
L 366.011444 142.559056 
L 365.193928 140.803298 
L 373.779558 143.642173 
L 365.049055 145.998137 
L 365.963153 144.290669 
L 357.960451 144.067491 
L 358.008742 142.335878 
" style="fill:#0000ff;"/>
    <path clip-path="url(#pc00bd2552c)" d="M 364.769715 153.140679 
L 372.769694 153.069745 
L 371.888226 151.345207 
L 380.572356 153.866738 
L 371.934303 156.541862 
L 372.785053 154.801964 
L 364.785074 154.872898 
L 364.769715 153.140679 
" style="fill:#0000ff;"/>
    <path clip-path="url(#pc00bd2552c)" d="M 375.393198 142.335557 
L 383.393015 142.384206 
L 382.537422 140.646684 
L 391.182892 143.297737 
L 382.505819 145.843447 
L 383.382481 144.11646 
L 375.382664 144.067811 
L 375.393198 142.335557 
" style="fill:#0000ff;"/>
    <path clip-path="url(#pc00bd2552c)" d="M 340.630768 142.336975 
L 348.643346 142.798612 
L 347.878275 141.019374 
L 356.37591 144.111695 
L 347.579359 146.207629 
L 348.543707 144.52803 
L 340.531129 144.066393 
L 340.630768 142.336975 
" style="fill:#0000ff;"/>
    <path clip-path="url(#pc00bd2552c)" d="M 347.054681 156.004766 
L 355.054798 155.919336 
L 354.170206 154.196396 
L 362.858891 156.702191 
L 354.225698 159.39296 
L 355.073295 157.651523 
L 347.073178 157.736953 
L 347.054681 156.004766 
" style="fill:#0000ff;"/>
    <path clip-path="url(#pc00bd2552c)" d="M 323.262077 142.339669 
L 331.298902 143.127146 
L 330.605814 141.318652 
L 338.972575 144.749331 
L 330.099034 146.490743 
L 331.129976 144.851176 
L 323.09315 144.063699 
L 323.262077 142.339669 
" style="fill:#0000ff;"/>
    <path clip-path="url(#pc00bd2552c)" d="M 332.06598 157.603249 
L 340.066903 157.459936 
L 339.169875 155.743439 
L 347.876454 158.186333 
L 339.262947 160.939465 
L 340.097927 159.191944 
L 332.097004 159.335258 
L 332.06598 157.603249 
" style="fill:#0000ff;"/>
    <path clip-path="url(#pc00bd2552c)" d="M 305.905705 142.345618 
L 313.996075 143.590646 
L 313.403489 141.746774 
L 321.568927 145.632371 
L 312.613049 146.883169 
L 313.732595 145.302777 
L 305.642225 144.05775 
L 305.905705 142.345618 
" style="fill:#0000ff;"/>
    <path clip-path="url(#pc00bd2552c)" d="M 314.372875 157.487397 
L 322.377398 157.204888 
L 321.450693 155.50423 
L 330.198387 157.795539 
L 321.633996 160.697856 
L 322.438499 158.936097 
L 314.433976 159.218606 
L 314.372875 157.487397 
" style="fill:#0000ff;"/>
    <path clip-path="url(#pc00bd2552c)" d="M 288.52554 142.349506 
L 296.650901 143.826541 
L 296.108543 141.967276 
L 304.165592 146.072906 
L 295.179085 147.080343 
L 296.341082 145.530897 
L 288.215721 144.053862 
L 288.52554 142.349506 
" style="fill:#0000ff;"/>
    <path clip-path="url(#pc00bd2552c)" d="M 298.201677 157.519732 
L 306.209357 157.156487 
L 305.265604 155.46523 
L 314.035888 157.668493 
L 305.501102 160.65675 
L 306.287856 158.886994 
L 298.280176 159.250239 
L 298.201677 157.519732 
" style="fill:#0000ff;"/>
    <path clip-path="url(#pc00bd2552c)" d="M 271.172191 142.360201 
L 279.393805 144.365163 
L 278.962738 142.476988 
L 286.761944 147.053518 
L 277.73149 147.525887 
L 278.983389 146.048129 
L 270.761775 144.043167 
L 271.172191 142.360201 
" style="fill:#0000ff;"/>
    <path clip-path="url(#pc00bd2552c)" d="M 283.27129 155.699173 
L 291.287158 155.181648 
L 290.311206 153.508765 
L 299.122055 155.543753 
L 290.646032 158.694827 
L 291.398767 156.910335 
L 283.382898 157.427861 
L 283.27129 155.699173 
" style="fill:#0000ff;"/>
    <path clip-path="url(#pc00bd2552c)" d="M 236.176799 204.988336 
L 244.177939 205.143632 
L 243.345575 203.394864 
L 251.954952 206.160885 
L 243.244727 208.590745 
L 244.144323 206.875592 
L 236.143183 206.720296 
L 236.176799 204.988336 
" style="fill:#0000ff;"/>
    <path clip-path="url(#pc00bd2552c)" d="M 236.265647 142.342007 
L 244.323515 143.332165 
L 243.675114 141.507173 
L 251.954971 145.142584 
L 243.041286 146.665236 
L 244.112239 145.05152 
L 236.054371 144.061361 
L 236.265647 142.342007 
" style="fill:#0000ff;"/>
    <path clip-path="url(#pc00bd2552c)" d="M 253.685692 142.3442 
L 261.763297 143.495047 
L 261.150151 141.65791 
L 269.358484 145.452053 
L 260.417137 146.802814 
L 261.518959 145.210015 
L 253.441354 144.059168 
L 253.685692 142.3442 
" style="fill:#0000ff;"/>
    <path clip-path="url(#pc00bd2552c)" d="M 218.979686 142.364796 
L 227.242653 144.568633 
L 226.852182 142.671648 
L 234.551439 147.4144 
L 225.51293 147.692978 
L 226.796236 146.24241 
L 218.533269 144.038572 
L 218.979686 142.364796 
" style="fill:#0000ff;"/>
    <path clip-path="url(#pc00bd2552c)" d="M 201.526307 142.353053 
L 209.68359 144.018767 
L 209.181539 142.148215 
L 217.147979 146.427009 
L 208.141798 147.240001 
L 209.337009 145.716029 
L 201.179727 144.050315 
L 201.526307 142.353053 
" style="fill:#0000ff;"/>
    <path clip-path="url(#pc00bd2552c)" d="M 207.745934 150.088381 
L 215.9634 148.104066 
L 214.714839 146.623487 
L 223.744204 147.116232 
L 215.934691 151.675151 
L 216.370017 149.787954 
L 208.152552 151.772269 
L 207.745934 150.088381 
" style="fill:#0000ff;"/>
    <path clip-path="url(#pc00bd2552c)" d="M 166.596189 142.336994 
L 174.608942 142.801758 
L 173.844561 141.022224 
L 182.340996 144.11784 
L 173.543633 146.210363 
L 174.508632 144.531138 
L 166.49588 144.066374 
L 166.596189 142.336994 
" style="fill:#0000ff;"/>
    <path clip-path="url(#pc00bd2552c)" d="M 172.272978 156.710155 
L 180.272665 156.694451 
L 179.403123 154.963868 
L 188.069639 157.54529 
L 179.413325 160.160718 
L 180.276066 158.426734 
L 172.276378 158.442438 
L 172.272978 156.710155 
" style="fill:#0000ff;"/>
    <path clip-path="url(#pc00bd2552c)" d="M 184.028933 142.339203 
L 192.061564 143.080209 
L 191.35821 141.275683 
L 199.744331 144.658761 
L 190.880829 146.45057 
L 191.902437 144.805172 
L 183.869806 144.064165 
L 184.028933 142.339203 
" style="fill:#0000ff;"/>
    <path clip-path="url(#pc00bd2552c)" d="M 149.184106 142.336546 
L 157.192827 142.722753 
L 156.411128 140.950757 
L 164.937348 143.963368 
L 156.16081 146.141584 
L 157.109387 144.453028 
L 149.100667 144.066822 
L 149.184106 142.336546 
" style="fill:#0000ff;"/>
    <path clip-path="url(#pc00bd2552c)" d="M 157.86164 157.348683 
L 165.861359 157.376566 
L 165.001259 155.641271 
L 173.653582 158.269874 
L 164.983146 160.838099 
L 165.855322 159.108842 
L 157.855602 159.080959 
L 157.86164 157.348683 
" style="fill:#0000ff;"/>
    <path clip-path="url(#pc00bd2552c)" d="M 131.774406 142.336263 
L 139.780575 142.66333 
L 138.985862 140.897133 
L 147.534013 143.846939 
L 138.773737 146.089662 
L 139.709867 144.394173 
L 131.703698 144.067106 
L 131.774406 142.336263 
" style="fill:#0000ff;"/>
    <path clip-path="url(#pc00bd2552c)" d="M 140.355329 158.59529 
L 148.355399 158.67607 
L 147.50679 156.935126 
L 156.141545 159.620877 
L 147.454318 162.131721 
L 148.337908 160.408268 
L 140.337838 160.327488 
L 140.355329 158.59529 
" style="fill:#0000ff;"/>
    <path clip-path="url(#pc00bd2552c)" d="M 114.364255 142.336022 
L 122.368253 142.602784 
L 121.560294 140.842607 
L 130.130365 143.728108 
L 121.387186 146.036583 
L 122.310551 144.334109 
L 114.306552 144.067347 
L 114.364255 142.336022 
" style="fill:#0000ff;"/>
    <path clip-path="url(#pc00bd2552c)" d="M 123.039431 157.417417 
L 131.03919 157.455126 
L 130.181222 155.718776 
L 138.83031 158.358004 
L 130.156726 160.915578 
L 131.031025 159.187393 
L 123.031266 159.149685 
L 123.039431 157.417417 
" style="fill:#0000ff;"/>
    <path clip-path="url(#pc00bd2552c)" d="M 105.733366 155.548449 
L 113.733045 155.538436 
L 112.864734 153.807235 
L 121.529412 156.394822 
L 112.871239 159.004091 
L 113.735213 157.270721 
L 105.735535 157.280734 
L 105.733366 155.548449 
" style="fill:#0000ff;"/>
    <path clip-path="url(#pc00bd2552c)" d="M 89.745833 197.807962 
L 97.745506 197.808158 
L 96.879405 196.07585 
L 105.540774 198.674492 
L 96.879278 201.272709 
L 97.745463 199.540444 
L 89.745791 199.540248 
L 89.745833 197.807962 
" style="fill:#0000ff;"/>
    <path clip-path="url(#pc00bd2552c)" d="M 199.187969 166.967637 
L 207.193511 166.65679 
L 206.260808 164.959414 
L 215.016536 167.219825 
L 206.462444 170.15236 
L 207.260723 168.387772 
L 199.255181 168.698619 
L 199.187969 166.967637 
" style="fill:#0000ff;"/>
    <path clip-path="url(#pc00bd2552c)" d="M 79.530898 204.988176 
L 87.530603 205.011056 
L 86.669417 203.276299 
L 95.323383 205.89949 
L 86.654554 208.473137 
L 87.525648 206.743335 
L 79.525944 206.720455 
L 79.530898 204.988176 
" style="fill:#0000ff;"/>
    <path clip-path="url(#pc00bd2552c)" d="M 100.545603 169.324273 
L 108.545404 169.278384 
L 107.669339 167.551094 
L 116.345533 170.099798 
L 107.699149 172.747868 
L 108.555341 171.010642 
L 100.55554 171.056531 
L 100.545603 169.324273 
" style="fill:#0000ff;"/>
    <path clip-path="url(#pc00bd2552c)" d="M 91.994753 178.035076 
L 99.994451 178.05556 
L 99.132747 176.321061 
L 107.787497 178.94166 
L 99.11944 181.517903 
L 99.990016 179.78784 
L 91.990318 179.767357 
L 91.994753 178.035076 
" style="fill:#0000ff;"/>
    <path clip-path="url(#pc00bd2552c)" d="M 91.103067 188.306753 
L 99.102742 188.299905 
L 98.235116 186.568361 
L 106.89877 189.159375 
L 98.239565 191.765218 
L 99.104225 190.032191 
L 91.104549 190.039039 
L 91.103067 188.306753 
" style="fill:#0000ff;"/>
    <path clip-path="url(#pc00bd2552c)" d="M 182.617202 157.501507 
L 190.61705 157.447836 
L 189.739305 155.721399 
L 198.417975 158.261662 
L 189.77417 160.918142 
L 190.628672 159.180083 
L 182.628824 159.233755 
L 182.617202 157.501507 
" style="fill:#0000ff;"/>
    <path clip-path="url(#pc00bd2552c)" d="M 117.459061 170.604969 
L 125.459182 170.519179 
L 124.574513 168.79628 
L 133.26331 171.301684 
L 124.630239 173.99284 
L 125.477757 172.251366 
L 117.477636 172.337156 
L 117.459061 170.604969 
" style="fill:#0000ff;"/>
    <path clip-path="url(#pc00bd2552c)" d="M 270.982839 204.988318 
L 278.983818 205.134812 
L 278.149532 203.38696 
L 286.761944 206.143514 
L 278.054395 208.582948 
L 278.952106 206.866808 
L 270.951127 206.720314 
L 270.982839 204.988318 
" style="fill:#0000ff;"/>
    <path clip-path="url(#pc00bd2552c)" d="M 267.167044 195.423865 
L 275.179339 194.967353 
L 274.216059 193.287141 
L 283.011276 195.388665 
L 274.511678 198.475586 
L 275.277879 196.696835 
L 267.265584 197.153347 
L 267.167044 195.423865 
" style="fill:#0000ff;"/>
    <path clip-path="url(#pc00bd2552c)" d="M 253.683387 204.996507 
L 261.758066 206.124808 
L 261.139986 204.289325 
L 269.358484 208.061398 
L 260.420799 209.43618 
L 261.518337 207.840426 
L 253.443658 206.712125 
L 253.683387 204.996507 
" style="fill:#0000ff;"/>
    <path clip-path="url(#pc00bd2552c)" d="M 288.331066 204.989077 
L 296.338876 204.622905 
L 295.394507 202.931991 
L 304.165592 205.132062 
L 295.631895 208.123426 
L 296.418005 206.353383 
L 288.410195 206.719555 
L 288.331066 204.989077 
" style="fill:#0000ff;"/>
    <path clip-path="url(#pc00bd2552c)" d="M 284.295205 190.854364 
L 292.29571 190.971303 
L 291.454977 189.226543 
L 300.077508 191.951281 
L 291.379025 194.422847 
L 292.270393 192.703404 
L 284.269888 192.586465 
L 284.295205 190.854364 
" style="fill:#0000ff;"/>
    <path clip-path="url(#pc00bd2552c)" d="M 305.748604 204.988544 
L 313.751619 204.754106 
L 312.835124 203.047924 
L 321.568927 205.391623 
L 312.987294 208.242555 
L 313.802342 206.48565 
L 305.799327 206.720088 
L 305.748604 204.988544 
" style="fill:#0000ff;"/>
    <path clip-path="url(#pc00bd2552c)" d="M 298.354328 189.934645 
L 306.354184 189.989623 
L 305.499966 188.251425 
L 314.143337 190.909317 
L 305.464252 193.448162 
L 306.34228 191.721869 
L 298.342423 191.666891 
L 298.354328 189.934645 
" style="fill:#0000ff;"/>
    <path clip-path="url(#pc00bd2552c)" d="M 323.149636 204.988625 
L 331.153376 204.729956 
L 330.231729 203.026551 
L 338.972575 205.343847 
L 330.399596 208.220699 
L 331.209332 206.461338 
L 323.205591 206.720007 
L 323.149636 204.988625 
" style="fill:#0000ff;"/>
    <path clip-path="url(#pc00bd2552c)" d="M 314.554528 189.798278 
L 322.554912 189.906364 
L 321.712249 188.162535 
L 330.337789 190.877733 
L 321.642046 193.35892 
L 322.531511 191.638492 
L 314.531127 191.530406 
L 314.554528 189.798278 
" style="fill:#0000ff;"/>
    <path clip-path="url(#pc00bd2552c)" d="M 340.565222 204.988315 
L 348.566179 204.84302 
L 347.668726 203.126745 
L 356.37591 205.567483 
L 347.763084 208.322748 
L 348.597632 206.575021 
L 340.596675 206.720316 
L 340.565222 204.988315 
" style="fill:#0000ff;"/>
    <path clip-path="url(#pc00bd2552c)" d="M 330.851249 189.163568 
L 338.851006 189.200642 
L 337.9929 187.46436 
L 346.642197 190.102901 
L 337.968816 192.661164 
L 338.842978 190.93291 
L 330.843221 190.895836 
L 330.851249 189.163568 
" style="fill:#0000ff;"/>
    <path clip-path="url(#pc00bd2552c)" d="M 357.975068 204.988225 
L 365.975212 204.900214 
L 365.090066 203.177561 
L 373.779558 205.680553 
L 365.147234 208.374105 
L 365.994268 206.632396 
L 357.994124 206.720407 
L 357.975068 204.988225 
" style="fill:#0000ff;"/>
    <path clip-path="url(#pc00bd2552c)" d="M 345.934477 190.384794 
L 353.934244 190.424025 
L 353.076606 188.687512 
L 361.725191 191.328386 
L 353.051121 193.884309 
L 353.925749 192.156291 
L 345.925982 192.11706 
L 345.934477 190.384794 
" style="fill:#0000ff;"/>
    <path clip-path="url(#pc00bd2552c)" d="M 382.712352 149.858775 
L 390.712025 149.861805 
L 389.846538 148.12919 
L 398.506985 150.7309 
L 389.844569 153.326049 
L 390.711369 151.594091 
L 382.711696 151.591061 
L 382.712352 149.858775 
" style="fill:#0000ff;"/>
    <path clip-path="url(#pc00bd2552c)" d="M 272.183551 156.410323 
L 280.187679 156.139599 
L 279.263473 154.437582 
L 288.007792 156.741738 
L 279.439146 159.631471 
L 280.246237 157.870896 
L 272.242109 158.14162 
L 272.183551 156.410323 
" style="fill:#0000ff;"/>
    <path clip-path="url(#pc00bd2552c)" d="M 357.300551 189.723929 
L 365.300269 189.751096 
L 364.440013 188.015878 
L 373.092572 190.643706 
L 364.422365 193.212707 
L 365.294386 191.483372 
L 357.294669 191.456205 
L 357.300551 189.723929 
" style="fill:#0000ff;"/>
    <path clip-path="url(#pc00bd2552c)" d="M 369.447839 194.613444 
L 377.447642 194.659774 
L 376.591546 192.9225 
L 385.237784 195.571047 
L 376.561449 198.119273 
L 377.43761 196.392031 
L 369.437807 196.345701 
L 369.447839 194.613444 
" style="fill:#0000ff;"/>
    <path clip-path="url(#pc00bd2552c)" d="M 363.112311 178.546538 
L 371.111984 178.548604 
L 370.246288 176.816094 
L 378.907049 179.416761 
L 370.244946 182.012953 
L 371.111537 180.280891 
L 363.111864 180.278824 
L 363.112311 178.546538 
" style="fill:#0000ff;"/>
    <path clip-path="url(#pc00bd2552c)" d="M 372.463978 178.411618 
L 380.463675 178.391786 
L 379.59324 176.661652 
L 388.261087 179.238601 
L 379.606123 181.858495 
L 380.467969 180.124067 
L 372.468273 180.143899 
L 372.463978 178.411618 
" style="fill:#0000ff;"/>
    <path clip-path="url(#pc00bd2552c)" d="M 377.09024 169.226489 
L 385.089917 169.218151 
L 384.221968 167.486768 
L 392.886104 170.076169 
L 384.227385 172.683625 
L 385.091722 170.950437 
L 377.092046 170.958775 
L 377.09024 169.226489 
" style="fill:#0000ff;"/>
    <path clip-path="url(#pc00bd2552c)" d="M 381.389563 159.31485 
L 389.389302 159.34794 
L 388.530332 157.612086 
L 397.180942 160.246319 
L 388.508836 162.8089 
L 389.382137 161.080211 
L 381.382398 161.047122 
L 381.389563 159.31485 
" style="fill:#0000ff;"/>
    <path clip-path="url(#pc00bd2552c)" d="M 350.556927 172.215804 
L 358.557744 172.352879 
L 357.721402 170.60601 
L 366.337052 173.352429 
L 357.632379 175.802107 
L 358.528069 174.084911 
L 350.527253 173.947837 
L 350.556927 172.215804 
" style="fill:#0000ff;"/>
    <path clip-path="url(#pc00bd2552c)" d="M 361.587317 163.842208 
L 369.587201 163.783242 
L 368.708313 162.057387 
L 377.388663 164.591905 
L 368.746618 167.254105 
L 369.599969 165.515481 
L 361.600085 165.574447 
L 361.587317 163.842208 
" style="fill:#0000ff;"/>
    <path clip-path="url(#pc00bd2552c)" d="M 306.698649 173.660115 
L 314.705518 174.004402 
L 313.914592 172.236506 
L 322.456402 175.204626 
L 313.691339 177.428568 
L 314.6311 175.73509 
L 306.624231 175.390802 
L 306.698649 173.660115 
" style="fill:#0000ff;"/>
    <path clip-path="url(#pc00bd2552c)" d="M 322.695495 173.551341 
L 330.699205 173.809047 
L 329.889258 172.049784 
L 338.462583 174.925606 
L 329.722015 177.243951 
L 330.643457 175.540436 
L 322.639747 175.282731 
L 322.695495 173.551341 
" style="fill:#0000ff;"/>
    <path clip-path="url(#pc00bd2552c)" d="M 337.84634 173.156381 
L 345.847645 173.320131 
L 345.017127 171.570485 
L 353.62358 174.345592 
L 344.910794 176.766256 
L 345.8122 175.052054 
L 337.810896 174.888305 
L 337.84634 173.156381 
" style="fill:#0000ff;"/>
    <path clip-path="url(#pc00bd2552c)" d="M 292.505261 172.77837 
L 300.522895 173.323582 
L 299.776274 171.536524 
L 308.241459 174.716601 
L 299.423694 176.721409 
L 300.405368 175.051877 
L 292.387734 174.506665 
L 292.505261 172.77837 
" style="fill:#0000ff;"/>
    <path clip-path="url(#pc00bd2552c)" d="M 280.985279 171.744628 
L 289.010222 172.39237 
L 288.286256 170.596014 
L 296.710556 173.882871 
L 287.868146 175.776026 
L 288.870852 174.119041 
L 280.845909 173.471299 
L 280.985279 171.744628 
" style="fill:#0000ff;"/>
    <path clip-path="url(#pc00bd2552c)" d="M 392.789063 142.335545 
L 400.788768 142.312303 
L 399.917596 140.58254 
L 408.58654 143.155795 
L 399.932694 145.779378 
L 400.793801 144.044582 
L 392.794095 144.067824 
L 392.789063 142.335545 
" style="fill:#0000ff;"/>
    <path clip-path="url(#pc00bd2552c)" d="M 273.193267 183.294764 
L 281.280926 182.06922 
L 280.165024 180.486254 
L 289.117996 181.75768 
L 280.943629 185.624456 
L 281.540461 183.781954 
L 273.452802 185.007498 
L 273.193267 183.294764 
" style="fill:#0000ff;"/>
    <path clip-path="url(#pc00bd2552c)" d="M 175.980208 174.784499 
L 183.984121 174.520371 
L 183.061315 172.817594 
L 191.803736 175.128939 
L 183.232718 178.011626 
L 184.041255 176.251715 
L 176.037342 176.515843 
L 175.980208 174.784499 
" style="fill:#0000ff;"/>
    <path clip-path="url(#pc00bd2552c)" d="M 163.587393 173.671199 
L 171.590057 173.449439 
L 170.676261 171.74181 
L 179.406347 174.09932 
L 170.820215 176.936675 
L 171.638041 175.181061 
L 163.635378 175.40282 
L 163.587393 173.671199 
" style="fill:#0000ff;"/>
    <path clip-path="url(#pc00bd2552c)" d="M 148.085161 173.806377 
L 156.086914 173.621455 
L 155.180979 171.909642 
L 163.900134 174.307265 
L 155.301048 177.105115 
L 156.126937 175.353279 
L 148.125184 175.538201 
L 148.085161 173.806377 
" style="fill:#0000ff;"/>
    <path clip-path="url(#pc00bd2552c)" d="M 131.604674 173.555165 
L 139.605161 173.43952 
L 138.714071 171.719933 
L 147.412154 174.192906 
L 138.789182 176.91625 
L 139.630198 175.171626 
L 131.629711 175.287271 
L 131.604674 173.555165 
" style="fill:#0000ff;"/>
    <path clip-path="url(#pc00bd2552c)" d="M 109.849637 181.813483 
L 117.849466 181.864168 
L 116.994316 180.126428 
L 125.639111 182.779681 
L 116.96139 185.323183 
L 117.838491 183.596419 
L 109.838662 183.545734 
L 109.849637 181.813483 
" style="fill:#0000ff;"/>
    <path clip-path="url(#pc00bd2552c)" d="M 194.688072 152.931616 
L 202.703351 152.423671 
L 201.729383 150.749632 
L 210.537813 152.795066 
L 202.058059 155.936088 
L 202.812909 154.15249 
L 194.797631 154.660434 
L 194.688072 152.931616 
" style="fill:#0000ff;"/>
    <path clip-path="url(#pc00bd2552c)" d="M 192.382278 183.464268 
L 200.390123 183.831226 
L 199.604186 182.061106 
L 208.137591 185.053304 
L 199.36629 187.252518 
L 200.310824 185.561696 
L 192.30298 185.194738 
L 192.382278 183.464268 
" style="fill:#0000ff;"/>
    <path clip-path="url(#pc00bd2552c)" d="M 199.590729 177.103799 
L 207.598814 177.476137 
L 206.814062 175.705492 
L 215.345463 178.703399 
L 206.572693 180.896743 
L 207.518358 179.206554 
L 199.510273 178.834216 
L 199.590729 177.103799 
" style="fill:#0000ff;"/>
    <path clip-path="url(#pc00bd2552c)" d="M 187.471638 170.278155 
L 195.473098 170.106803 
L 194.570064 168.393458 
L 203.285144 170.805849 
L 194.68133 173.589126 
L 195.510186 171.838692 
L 187.508727 172.010045 
L 187.471638 170.278155 
" style="fill:#0000ff;"/>
    <path clip-path="url(#pc00bd2552c)" d="M 269.057084 169.164975 
L 277.116343 170.167214 
L 276.470599 168.341281 
L 284.745156 171.988739 
L 275.829264 173.498415 
L 276.902565 171.886259 
L 268.843305 170.88402 
L 269.057084 169.164975 
" style="fill:#0000ff;"/>
   </g>
   <g id="line2d_1">
    <path clip-path="url(#pc00bd2552c)" d="M 261.375335 185.383759 
L 248.831432 183.737436 
M 251.823158 174.527998 
L 248.831432 183.737436 
M 251.823158 174.527998 
L 261.375335 185.383759 
M 240.995029 189.426357 
L 248.831432 183.737436 
M 251.787227 196.480511 
L 248.831432 183.737436 
M 251.787227 196.480511 
L 261.375335 185.383759 
M 251.787227 196.480511 
L 240.995029 189.426357 
M 231.314727 189.422943 
L 240.995029 189.426357 
M 236.362083 197.059954 
L 240.995029 189.426357 
M 236.362083 197.059954 
L 251.787227 196.480511 
M 236.362083 197.059954 
L 231.314727 189.422943 
M 223.48625 183.732737 
L 231.314727 189.422943 
M 217.325397 194.789642 
L 231.314727 189.422943 
M 217.325397 194.789642 
L 223.48625 183.732737 
M 220.495777 174.528802 
L 223.48625 183.732737 
M 212.3109 179.191893 
L 223.48625 183.732737 
M 212.3109 179.191893 
L 220.495777 174.528802 
M 223.484965 165.323608 
L 220.495777 174.528802 
M 211.324184 169.969676 
L 220.495777 174.528802 
M 211.324184 169.969676 
L 212.3109 179.191893 
M 211.324184 169.969676 
L 223.484965 165.323608 
M 231.325378 159.629392 
L 223.484965 165.323608 
M 217.965018 155.136102 
L 223.484965 165.323608 
M 217.965018 155.136102 
L 231.325378 159.629392 
M 241.013355 159.635532 
L 231.325378 159.629392 
M 235.579335 151.761537 
L 231.325378 159.629392 
M 235.579335 151.761537 
L 241.013355 159.635532 
M 248.833218 165.323357 
L 251.823158 174.527998 
M 248.833218 165.323357 
L 241.013355 159.635532 
M 247.507425 151.663204 
L 241.013355 159.635532 
M 247.507425 151.663204 
L 235.579335 151.761537 
M 247.507425 151.663204 
L 248.833218 165.323357 
M 258.8239 169.649208 
L 261.375335 185.383759 
M 258.8239 169.649208 
L 251.823158 174.527998 
M 258.8239 169.649208 
L 248.833218 165.323357 
M 96.932069 143.201684 
L 79.528421 149.466947 
M 79.528421 143.201684 
L 79.528421 149.466947 
M 79.528421 143.201684 
L 96.932069 143.201684 
M 79.528421 155.732211 
L 79.528421 149.466947 
M 88.02913 155.67764 
L 79.528421 149.466947 
M 88.02913 155.67764 
L 96.932069 143.201684 
M 88.02913 155.67764 
L 79.528421 155.732211 
M 79.528421 161.997474 
L 79.528421 155.732211 
M 79.528421 161.997474 
L 88.02913 155.67764 
M 79.528421 168.262737 
L 79.528421 161.997474 
M 88.349912 165.590258 
L 88.02913 155.67764 
M 88.349912 165.590258 
L 79.528421 161.997474 
M 88.349912 165.590258 
L 79.528421 168.262737 
M 79.528421 174.528 
L 79.528421 168.262737 
M 89.200421 172.671061 
L 79.528421 168.262737 
M 89.200421 172.671061 
L 88.349912 165.590258 
M 89.200421 172.671061 
L 79.528421 174.528 
M 79.528421 180.793263 
L 79.528421 174.528 
M 85.156194 178.127958 
L 79.528421 174.528 
M 85.156194 178.127958 
L 89.200421 172.671061 
M 85.156194 178.127958 
L 79.528421 180.793263 
M 79.528421 187.058526 
L 79.528421 180.793263 
M 87.049869 184.421289 
L 79.528421 180.793263 
M 87.049869 184.421289 
L 85.156194 178.127958 
M 87.049869 184.421289 
L 79.528421 187.058526 
M 79.528421 193.323789 
L 79.528421 187.058526 
M 84.922186 189.761079 
L 79.528421 187.058526 
M 84.922186 189.761079 
L 87.049869 184.421289 
M 84.922186 189.761079 
L 79.528421 193.323789 
M 79.528421 199.589053 
L 79.528421 193.323789 
M 85.595389 194.39634 
L 79.528421 193.323789 
M 85.595389 194.39634 
L 84.922186 189.761079 
M 85.595389 194.39634 
L 79.528421 199.589053 
M 106.361603 195.1009 
L 114.335404 205.854316 
M 96.932069 205.854316 
L 114.335404 205.854316 
M 96.932069 205.854316 
L 106.361603 195.1009 
M 131.739052 205.854316 
L 114.335404 205.854316 
M 124.476045 190.706852 
L 114.335404 205.854316 
M 124.476045 190.706852 
L 106.361603 195.1009 
M 124.476045 190.706852 
L 131.739052 205.854316 
M 149.142387 205.854316 
L 131.739052 205.854316 
M 140.238508 190.586747 
L 131.739052 205.854316 
M 140.238508 190.586747 
L 124.476045 190.706852 
M 140.238508 190.586747 
L 149.142387 205.854316 
M 166.546035 205.854316 
L 149.142387 205.854316 
M 157.235853 190.062908 
L 149.142387 205.854316 
M 157.235853 190.062908 
L 140.238508 190.586747 
M 157.235853 190.062908 
L 166.546035 205.854316 
M 183.949369 205.854316 
L 166.546035 205.854316 
M 172.950387 191.286013 
L 166.546035 205.854316 
M 172.950387 191.286013 
L 157.235853 190.062908 
M 172.950387 191.286013 
L 183.949369 205.854316 
M 201.353017 205.854316 
L 183.949369 205.854316 
M 187.718238 193.34932 
L 183.949369 205.854316 
M 187.718238 193.34932 
L 172.950387 191.286013 
M 187.718238 193.34932 
L 201.353017 205.854316 
M 218.756477 205.854316 
L 217.325397 194.789642 
M 218.756477 205.854316 
L 201.353017 205.854316 
M 204.64228 195.564436 
L 217.325397 194.789642 
M 204.64228 195.564436 
L 201.353017 205.854316 
M 204.64228 195.564436 
L 187.718238 193.34932 
M 204.64228 195.564436 
L 218.756477 205.854316 
M 226.910623 199.091465 
L 231.314727 189.422943 
M 226.910623 199.091465 
L 236.362083 197.059954 
M 226.910623 199.091465 
L 217.325397 194.789642 
M 226.910623 199.091465 
L 218.756477 205.854316 
M 208.948803 187.961727 
L 223.48625 183.732737 
M 208.948803 187.961727 
L 217.325397 194.789642 
M 208.948803 187.961727 
L 212.3109 179.191893 
M 208.948803 187.961727 
L 204.64228 195.564436 
M 209.120785 160.703509 
L 223.484965 165.323608 
M 209.120785 160.703509 
L 211.324184 169.969676 
M 209.120785 160.703509 
L 217.965018 155.136102 
M 226.175645 150.064841 
L 231.325378 159.629392 
M 226.175645 150.064841 
L 217.965018 155.136102 
M 226.175645 150.064841 
L 235.579335 151.761537 
M 259.418724 153.93148 
L 248.833218 165.323357 
M 259.418724 153.93148 
L 247.507425 151.663204 
M 259.418724 153.93148 
L 258.8239 169.649208 
M 375.387931 205.854316 
L 392.791579 199.589053 
M 392.791579 205.854316 
L 392.791579 199.589053 
M 392.791579 205.854316 
L 375.387931 205.854316 
M 392.791579 193.323789 
L 392.791579 199.589053 
M 384.546179 193.390515 
L 392.791579 199.589053 
M 384.546179 193.390515 
L 375.387931 205.854316 
M 384.546179 193.390515 
L 392.791579 193.323789 
M 392.791579 187.058526 
L 392.791579 193.323789 
M 392.791579 187.058526 
L 384.546179 193.390515 
M 392.791579 180.793263 
L 392.791579 187.058526 
M 381.206481 185.667043 
L 384.546179 193.390515 
M 381.206481 185.667043 
L 392.791579 187.058526 
M 381.206481 185.667043 
L 392.791579 180.793263 
M 392.791579 174.528001 
L 392.791579 180.793263 
M 382.839208 177.699194 
L 392.791579 180.793263 
M 382.839208 177.699194 
L 381.206481 185.667043 
M 382.839208 177.699194 
L 392.791579 174.528001 
M 392.791579 168.262737 
L 392.791579 174.528001 
M 385.257913 171.739403 
L 392.791579 174.528001 
M 385.257913 171.739403 
L 382.839208 177.699194 
M 385.257913 171.739403 
L 392.791579 168.262737 
M 392.791579 161.997474 
L 392.791579 168.262737 
M 384.880118 165.823639 
L 392.791579 168.262737 
M 384.880118 165.823639 
L 385.257913 171.739403 
M 384.880118 165.823639 
L 392.791579 161.997474 
M 392.791579 155.732211 
L 392.791579 161.997474 
M 387.734885 159.815032 
L 392.791579 161.997474 
M 387.734885 159.815032 
L 384.880118 165.823639 
M 387.734885 159.815032 
L 392.791579 155.732211 
M 392.791579 149.466947 
L 392.791579 155.732211 
M 386.934811 154.85169 
L 392.791579 155.732211 
M 386.934811 154.85169 
L 387.734885 159.815032 
M 386.934811 154.85169 
L 392.791579 149.466947 
M 364.777395 154.006788 
L 357.984596 143.201684 
M 375.387931 143.201684 
L 357.984596 143.201684 
M 375.387931 143.201684 
L 364.777395 154.006788 
M 340.580948 143.201684 
L 357.984596 143.201684 
M 347.063929 156.870859 
L 357.984596 143.201684 
M 347.063929 156.870859 
L 364.777395 154.006788 
M 347.063929 156.870859 
L 340.580948 143.201684 
M 323.177613 143.201684 
L 340.580948 143.201684 
M 332.081492 158.469253 
L 340.580948 143.201684 
M 332.081492 158.469253 
L 347.063929 156.870859 
M 332.081492 158.469253 
L 323.177613 143.201684 
M 305.773965 143.201684 
L 323.177613 143.201684 
M 314.403426 158.353001 
L 323.177613 143.201684 
M 314.403426 158.353001 
L 332.081492 158.469253 
M 314.403426 158.353001 
L 305.773965 143.201684 
M 288.370631 143.201684 
L 305.773965 143.201684 
M 298.240926 158.384986 
L 305.773965 143.201684 
M 298.240926 158.384986 
L 314.403426 158.353001 
M 298.240926 158.384986 
L 288.370631 143.201684 
M 270.966983 143.201684 
L 259.418724 153.93148 
M 270.966983 143.201684 
L 288.370631 143.201684 
M 283.327094 156.563517 
L 288.370631 143.201684 
M 283.327094 156.563517 
L 298.240926 158.384986 
M 283.327094 156.563517 
L 270.966983 143.201684 
M 236.159991 205.854316 
L 251.787227 196.480511 
M 236.159991 205.854316 
L 236.362083 197.059954 
M 236.159991 205.854316 
L 218.756477 205.854316 
M 236.159991 205.854316 
L 226.910623 199.091465 
M 236.160009 143.201684 
L 235.579335 151.761537 
M 236.160009 143.201684 
L 247.507425 151.663204 
M 236.160009 143.201684 
L 226.175645 150.064841 
M 253.563523 143.201684 
L 247.507425 151.663204 
M 253.563523 143.201684 
L 259.418724 153.93148 
M 253.563523 143.201684 
L 270.966983 143.201684 
M 253.563523 143.201684 
L 236.160009 143.201684 
M 218.756477 143.201684 
L 217.965018 155.136102 
M 218.756477 143.201684 
L 226.175645 150.064841 
M 218.756477 143.201684 
L 236.160009 143.201684 
M 201.353017 143.201684 
L 218.756477 143.201684 
M 207.949243 150.930325 
L 217.965018 155.136102 
M 207.949243 150.930325 
L 209.120785 160.703509 
M 207.949243 150.930325 
L 218.756477 143.201684 
M 207.949243 150.930325 
L 201.353017 143.201684 
M 172.274678 157.576297 
L 166.546035 143.201684 
M 183.949369 143.201684 
L 201.353017 143.201684 
M 183.949369 143.201684 
L 166.546035 143.201684 
M 183.949369 143.201684 
L 172.274678 157.576297 
M 149.142387 143.201684 
L 166.546035 143.201684 
M 157.858621 158.214821 
L 166.546035 143.201684 
M 157.858621 158.214821 
L 172.274678 157.576297 
M 157.858621 158.214821 
L 149.142387 143.201684 
M 131.739052 143.201684 
L 149.142387 143.201684 
M 140.346584 159.461389 
L 149.142387 143.201684 
M 140.346584 159.461389 
L 157.858621 158.214821 
M 140.346584 159.461389 
L 131.739052 143.201684 
M 114.335404 143.201684 
L 96.932069 143.201684 
M 114.335404 143.201684 
L 131.739052 143.201684 
M 123.035348 158.283551 
L 131.739052 143.201684 
M 123.035348 158.283551 
L 140.346584 159.461389 
M 123.035348 158.283551 
L 114.335404 143.201684 
M 105.734451 156.414592 
L 96.932069 143.201684 
M 105.734451 156.414592 
L 88.02913 155.67764 
M 105.734451 156.414592 
L 88.349912 165.590258 
M 105.734451 156.414592 
L 114.335404 143.201684 
M 105.734451 156.414592 
L 123.035348 158.283551 
M 89.745812 198.674105 
L 79.528421 199.589053 
M 89.745812 198.674105 
L 85.595389 194.39634 
M 89.745812 198.674105 
L 106.361603 195.1009 
M 89.745812 198.674105 
L 96.932069 205.854316 
M 199.221575 167.833128 
L 211.324184 169.969676 
M 199.221575 167.833128 
L 209.120785 160.703509 
M 79.528421 205.854316 
L 79.528421 199.589053 
M 79.528421 205.854316 
L 96.932069 205.854316 
M 79.528421 205.854316 
L 89.745812 198.674105 
M 100.550572 170.190402 
L 88.349912 165.590258 
M 100.550572 170.190402 
L 89.200421 172.671061 
M 100.550572 170.190402 
L 105.734451 156.414592 
M 91.992536 178.901216 
L 89.200421 172.671061 
M 91.992536 178.901216 
L 85.156194 178.127958 
M 91.992536 178.901216 
L 87.049869 184.421289 
M 91.992536 178.901216 
L 100.550572 170.190402 
M 91.103808 189.172896 
L 87.049869 184.421289 
M 91.103808 189.172896 
L 84.922186 189.761079 
M 91.103808 189.172896 
L 85.595389 194.39634 
M 91.103808 189.172896 
L 106.361603 195.1009 
M 91.103808 189.172896 
L 89.745812 198.674105 
M 91.103808 189.172896 
L 91.992536 178.901216 
M 182.623013 158.367631 
L 172.274678 157.576297 
M 182.623013 158.367631 
L 183.949369 143.201684 
M 117.468349 171.471062 
L 124.476045 190.706852 
M 117.468349 171.471062 
L 123.035348 158.283551 
M 117.468349 171.471062 
L 105.734451 156.414592 
M 117.468349 171.471062 
L 100.550572 170.190402 
M 267.216314 196.288606 
L 261.375335 185.383759 
M 267.216314 196.288606 
L 251.787227 196.480511 
M 267.216314 196.288606 
L 270.966983 205.854316 
M 253.563523 205.854316 
L 251.787227 196.480511 
M 253.563523 205.854316 
L 236.159991 205.854316 
M 253.563523 205.854316 
L 270.966983 205.854316 
M 253.563523 205.854316 
L 267.216314 196.288606 
M 288.370631 205.854316 
L 270.966983 205.854316 
M 284.282547 191.720415 
L 270.966983 205.854316 
M 284.282547 191.720415 
L 267.216314 196.288606 
M 284.282547 191.720415 
L 288.370631 205.854316 
M 305.773965 205.854316 
L 288.370631 205.854316 
M 298.348376 190.800768 
L 288.370631 205.854316 
M 298.348376 190.800768 
L 284.282547 191.720415 
M 298.348376 190.800768 
L 305.773965 205.854316 
M 323.177613 205.854316 
L 305.773965 205.854316 
M 314.542828 190.664342 
L 305.773965 205.854316 
M 314.542828 190.664342 
L 298.348376 190.800768 
M 314.542828 190.664342 
L 323.177613 205.854316 
M 340.580948 205.854316 
L 323.177613 205.854316 
M 330.847235 190.029702 
L 323.177613 205.854316 
M 330.847235 190.029702 
L 314.542828 190.664342 
M 330.847235 190.029702 
L 340.580948 205.854316 
M 357.984596 205.854316 
L 375.387931 205.854316 
M 357.984596 205.854316 
L 340.580948 205.854316 
M 345.93023 191.250927 
L 340.580948 205.854316 
M 345.93023 191.250927 
L 330.847235 190.029702 
M 345.93023 191.250927 
L 357.984596 205.854316 
M 382.712024 150.724918 
L 392.791579 149.466947 
M 382.712024 150.724918 
L 386.934811 154.85169 
M 382.712024 150.724918 
L 364.777395 154.006788 
M 382.712024 150.724918 
L 375.387931 143.201684 
M 272.21283 157.275971 
L 259.418724 153.93148 
M 272.21283 157.275971 
L 270.966983 143.201684 
M 272.21283 157.275971 
L 283.327094 156.563517 
M 357.29761 190.590067 
L 357.984596 205.854316 
M 357.29761 190.590067 
L 345.93023 191.250927 
M 369.442823 195.479573 
L 375.387931 205.854316 
M 369.442823 195.479573 
L 384.546179 193.390515 
M 369.442823 195.479573 
L 381.206481 185.667043 
M 369.442823 195.479573 
L 357.984596 205.854316 
M 369.442823 195.479573 
L 357.29761 190.590067 
M 363.112088 179.412681 
L 357.29761 190.590067 
M 363.112088 179.412681 
L 369.442823 195.479573 
M 372.466125 179.277759 
L 381.206481 185.667043 
M 372.466125 179.277759 
L 382.839208 177.699194 
M 372.466125 179.277759 
L 369.442823 195.479573 
M 372.466125 179.277759 
L 363.112088 179.412681 
M 377.091143 170.092632 
L 382.839208 177.699194 
M 377.091143 170.092632 
L 385.257913 171.739403 
M 377.091143 170.092632 
L 384.880118 165.823639 
M 377.091143 170.092632 
L 372.466125 179.277759 
M 381.385981 160.180986 
L 384.880118 165.823639 
M 381.385981 160.180986 
L 387.734885 159.815032 
M 381.385981 160.180986 
L 386.934811 154.85169 
M 381.385981 160.180986 
L 364.777395 154.006788 
M 381.385981 160.180986 
L 382.712024 150.724918 
M 381.385981 160.180986 
L 377.091143 170.092632 
M 350.54209 173.081821 
L 347.063929 156.870859 
M 350.54209 173.081821 
L 345.93023 191.250927 
M 350.54209 173.081821 
L 357.29761 190.590067 
M 350.54209 173.081821 
L 363.112088 179.412681 
M 361.593701 164.708328 
L 364.777395 154.006788 
M 361.593701 164.708328 
L 347.063929 156.870859 
M 361.593701 164.708328 
L 363.112088 179.412681 
M 361.593701 164.708328 
L 372.466125 179.277759 
M 361.593701 164.708328 
L 377.091143 170.092632 
M 361.593701 164.708328 
L 381.385981 160.180986 
M 361.593701 164.708328 
L 350.54209 173.081821 
M 306.66144 174.525459 
L 314.403426 158.353001 
M 306.66144 174.525459 
L 298.240926 158.384986 
M 306.66144 174.525459 
L 298.348376 190.800768 
M 306.66144 174.525459 
L 314.542828 190.664342 
M 322.667621 174.417036 
L 332.081492 158.469253 
M 322.667621 174.417036 
L 314.403426 158.353001 
M 322.667621 174.417036 
L 314.542828 190.664342 
M 322.667621 174.417036 
L 330.847235 190.029702 
M 322.667621 174.417036 
L 306.66144 174.525459 
M 337.828618 174.022343 
L 347.063929 156.870859 
M 337.828618 174.022343 
L 332.081492 158.469253 
M 337.828618 174.022343 
L 330.847235 190.029702 
M 337.828618 174.022343 
L 345.93023 191.250927 
M 337.828618 174.022343 
L 350.54209 173.081821 
M 337.828618 174.022343 
L 322.667621 174.417036 
M 292.446498 173.642518 
L 298.240926 158.384986 
M 292.446498 173.642518 
L 283.327094 156.563517 
M 292.446498 173.642518 
L 284.282547 191.720415 
M 292.446498 173.642518 
L 298.348376 190.800768 
M 292.446498 173.642518 
L 306.66144 174.525459 
M 280.915594 172.607963 
L 283.327094 156.563517 
M 280.915594 172.607963 
L 284.282547 191.720415 
M 280.915594 172.607963 
L 272.21283 157.275971 
M 280.915594 172.607963 
L 292.446498 173.642518 
M 392.791579 143.201684 
L 392.791579 149.466947 
M 392.791579 143.201684 
L 375.387931 143.201684 
M 392.791579 143.201684 
L 382.712024 150.724918 
M 273.323035 184.151131 
L 261.375335 185.383759 
M 273.323035 184.151131 
L 267.216314 196.288606 
M 273.323035 184.151131 
L 284.282547 191.720415 
M 273.323035 184.151131 
L 280.915594 172.607963 
M 176.008775 175.650171 
L 172.950387 191.286013 
M 176.008775 175.650171 
L 187.718238 193.34932 
M 176.008775 175.650171 
L 172.274678 157.576297 
M 176.008775 175.650171 
L 182.623013 158.367631 
M 163.611385 174.537009 
L 157.235853 190.062908 
M 163.611385 174.537009 
L 172.950387 191.286013 
M 163.611385 174.537009 
L 172.274678 157.576297 
M 163.611385 174.537009 
L 157.858621 158.214821 
M 163.611385 174.537009 
L 176.008775 175.650171 
M 148.105172 174.672289 
L 140.238508 190.586747 
M 148.105172 174.672289 
L 157.235853 190.062908 
M 148.105172 174.672289 
L 157.858621 158.214821 
M 148.105172 174.672289 
L 140.346584 159.461389 
M 148.105172 174.672289 
L 163.611385 174.537009 
M 131.617192 174.421218 
L 124.476045 190.706852 
M 131.617192 174.421218 
L 140.238508 190.586747 
M 131.617192 174.421218 
L 140.346584 159.461389 
M 131.617192 174.421218 
L 123.035348 158.283551 
M 131.617192 174.421218 
L 117.468349 171.471062 
M 131.617192 174.421218 
L 148.105172 174.672289 
M 109.84415 182.679609 
L 106.361603 195.1009 
M 109.84415 182.679609 
L 124.476045 190.706852 
M 109.84415 182.679609 
L 100.550572 170.190402 
M 109.84415 182.679609 
L 91.992536 178.901216 
M 109.84415 182.679609 
L 91.103808 189.172896 
M 109.84415 182.679609 
L 117.468349 171.471062 
M 194.742851 153.796025 
L 209.120785 160.703509 
M 194.742851 153.796025 
L 201.353017 143.201684 
M 194.742851 153.796025 
L 207.949243 150.930325 
M 194.742851 153.796025 
L 183.949369 143.201684 
M 194.742851 153.796025 
L 199.221575 167.833128 
M 194.742851 153.796025 
L 182.623013 158.367631 
M 192.342629 184.329503 
L 187.718238 193.34932 
M 192.342629 184.329503 
L 204.64228 195.564436 
M 192.342629 184.329503 
L 208.948803 187.961727 
M 192.342629 184.329503 
L 176.008775 175.650171 
M 199.550501 177.969008 
L 212.3109 179.191893 
M 199.550501 177.969008 
L 211.324184 169.969676 
M 199.550501 177.969008 
L 208.948803 187.961727 
M 199.550501 177.969008 
L 199.221575 167.833128 
M 199.550501 177.969008 
L 192.342629 184.329503 
M 187.490183 171.1441 
L 199.221575 167.833128 
M 187.490183 171.1441 
L 182.623013 158.367631 
M 187.490183 171.1441 
L 176.008775 175.650171 
M 187.490183 171.1441 
L 194.742851 153.796025 
M 187.490183 171.1441 
L 192.342629 184.329503 
M 187.490183 171.1441 
L 199.550501 177.969008 
M 268.950195 170.024498 
L 261.375335 185.383759 
M 268.950195 170.024498 
L 258.8239 169.649208 
M 268.950195 170.024498 
L 259.418724 153.93148 
M 268.950195 170.024498 
L 272.21283 157.275971 
M 268.950195 170.024498 
L 280.915594 172.607963 
M 268.950195 170.024498 
L 273.323035 184.151131 
L 273.323035 184.151131 
" style="fill:none;stroke:#cccccc;stroke-linecap:square;stroke-width:0.5;"/>
   </g>
   <g id="matplotlib.axis_1">
    <g id="xtick_1">
     <g id="line2d_2">
      <defs>
       <path d="M 0 0 
L 0 3.5 
" id="m074c93ac57" style="stroke:#000000;stroke-width:0.8;"/>
      </defs>
      <g>
       <use style="stroke:#000000;stroke-width:0.8;" x="110.854737" xlink:href="#m074c93ac57" y="210.24"/>
      </g>
     </g>
     <g id="text_1">
      <!-- 4 -->
      <defs>
       <path d="M 10.59375 35.5 
L 73.1875 35.5 
L 73.1875 27.203125 
L 10.59375 27.203125 
z
" id="DejaVuSans-8722"/>
       <path d="M 37.796875 64.3125 
L 12.890625 25.390625 
L 37.796875 25.390625 
z
M 35.203125 72.90625 
L 47.609375 72.90625 
L 47.609375 25.390625 
L 58.015625 25.390625 
L 58.015625 17.1875 
L 47.609375 17.1875 
L 47.609375 0 
L 37.796875 0 
L 37.796875 17.1875 
L 4.890625 17.1875 
L 4.890625 26.703125 
z
" id="DejaVuSans-52"/>
      </defs>
      <g transform="translate(103.483643 224.838437)scale(0.1 -0.1)">
       <use xlink:href="#DejaVuSans-8722"/>
       <use x="83.789062" xlink:href="#DejaVuSans-52"/>
      </g>
     </g>
    </g>
    <g id="xtick_2">
     <g id="line2d_3">
      <g>
       <use style="stroke:#000000;stroke-width:0.8;" x="173.507368" xlink:href="#m074c93ac57" y="210.24"/>
      </g>
     </g>
     <g id="text_2">
      <!-- 2 -->
      <defs>
       <path d="M 19.1875 8.296875 
L 53.609375 8.296875 
L 53.609375 0 
L 7.328125 0 
L 7.328125 8.296875 
Q 12.9375 14.109375 22.625 23.890625 
Q 32.328125 33.6875 34.8125 36.53125 
Q 39.546875 41.84375 41.421875 45.53125 
Q 43.3125 49.21875 43.3125 52.78125 
Q 43.3125 58.59375 39.234375 62.25 
Q 35.15625 65.921875 28.609375 65.921875 
Q 23.96875 65.921875 18.8125 64.3125 
Q 13.671875 62.703125 7.8125 59.421875 
L 7.8125 69.390625 
Q 13.765625 71.78125 18.9375 73 
Q 24.125 74.21875 28.421875 74.21875 
Q 39.75 74.21875 46.484375 68.546875 
Q 53.21875 62.890625 53.21875 53.421875 
Q 53.21875 48.921875 51.53125 44.890625 
Q 49.859375 40.875 45.40625 35.40625 
Q 44.1875 33.984375 37.640625 27.21875 
Q 31.109375 20.453125 19.1875 8.296875 
z
" id="DejaVuSans-50"/>
      </defs>
      <g transform="translate(166.136275 224.838437)scale(0.1 -0.1)">
       <use xlink:href="#DejaVuSans-8722"/>
       <use x="83.789062" xlink:href="#DejaVuSans-50"/>
      </g>
     </g>
    </g>
    <g id="xtick_3">
     <g id="line2d_4">
      <g>
       <use style="stroke:#000000;stroke-width:0.8;" x="236.16" xlink:href="#m074c93ac57" y="210.24"/>
      </g>
     </g>
     <g id="text_3">
      <!-- 0 -->
      <defs>
       <path d="M 31.78125 66.40625 
Q 24.171875 66.40625 20.328125 58.90625 
Q 16.5 51.421875 16.5 36.375 
Q 16.5 21.390625 20.328125 13.890625 
Q 24.171875 6.390625 31.78125 6.390625 
Q 39.453125 6.390625 43.28125 13.890625 
Q 47.125 21.390625 47.125 36.375 
Q 47.125 51.421875 43.28125 58.90625 
Q 39.453125 66.40625 31.78125 66.40625 
z
M 31.78125 74.21875 
Q 44.046875 74.21875 50.515625 64.515625 
Q 56.984375 54.828125 56.984375 36.375 
Q 56.984375 17.96875 50.515625 8.265625 
Q 44.046875 -1.421875 31.78125 -1.421875 
Q 19.53125 -1.421875 13.0625 8.265625 
Q 6.59375 17.96875 6.59375 36.375 
Q 6.59375 54.828125 13.0625 64.515625 
Q 19.53125 74.21875 31.78125 74.21875 
z
" id="DejaVuSans-48"/>
      </defs>
      <g transform="translate(232.97875 224.838437)scale(0.1 -0.1)">
       <use xlink:href="#DejaVuSans-48"/>
      </g>
     </g>
    </g>
    <g id="xtick_4">
     <g id="line2d_5">
      <g>
       <use style="stroke:#000000;stroke-width:0.8;" x="298.812632" xlink:href="#m074c93ac57" y="210.24"/>
      </g>
     </g>
     <g id="text_4">
      <!-- 2 -->
      <g transform="translate(295.631382 224.838437)scale(0.1 -0.1)">
       <use xlink:href="#DejaVuSans-50"/>
      </g>
     </g>
    </g>
    <g id="xtick_5">
     <g id="line2d_6">
      <g>
       <use style="stroke:#000000;stroke-width:0.8;" x="361.465263" xlink:href="#m074c93ac57" y="210.24"/>
      </g>
     </g>
     <g id="text_5">
      <!-- 4 -->
      <g transform="translate(358.284013 224.838437)scale(0.1 -0.1)">
       <use xlink:href="#DejaVuSans-52"/>
      </g>
     </g>
    </g>
   </g>
   <g id="matplotlib.axis_2">
    <g id="ytick_1">
     <g id="line2d_7">
      <defs>
       <path d="M 0 0 
L -3.5 0 
" id="m7fab548e14" style="stroke:#000000;stroke-width:0.8;"/>
      </defs>
      <g>
       <use style="stroke:#000000;stroke-width:0.8;" x="57.6" xlink:href="#m7fab548e14" y="205.854316"/>
      </g>
     </g>
     <g id="text_6">
      <!-- 1 -->
      <defs>
       <path d="M 12.40625 8.296875 
L 28.515625 8.296875 
L 28.515625 63.921875 
L 10.984375 60.40625 
L 10.984375 69.390625 
L 28.421875 72.90625 
L 38.28125 72.90625 
L 38.28125 8.296875 
L 54.390625 8.296875 
L 54.390625 0 
L 12.40625 0 
z
" id="DejaVuSans-49"/>
      </defs>
      <g transform="translate(35.857813 209.653535)scale(0.1 -0.1)">
       <use xlink:href="#DejaVuSans-8722"/>
       <use x="83.789062" xlink:href="#DejaVuSans-49"/>
      </g>
     </g>
    </g>
    <g id="ytick_2">
     <g id="line2d_8">
      <g>
       <use style="stroke:#000000;stroke-width:0.8;" x="57.6" xlink:href="#m7fab548e14" y="174.528"/>
      </g>
     </g>
     <g id="text_7">
      <!-- 0 -->
      <g transform="translate(44.2375 178.327219)scale(0.1 -0.1)">
       <use xlink:href="#DejaVuSans-48"/>
      </g>
     </g>
    </g>
    <g id="ytick_3">
     <g id="line2d_9">
      <g>
       <use style="stroke:#000000;stroke-width:0.8;" x="57.6" xlink:href="#m7fab548e14" y="143.201684"/>
      </g>
     </g>
     <g id="text_8">
      <!-- 1 -->
      <g transform="translate(44.2375 147.000903)scale(0.1 -0.1)">
       <use xlink:href="#DejaVuSans-49"/>
      </g>
     </g>
    </g>
   </g>
   <g id="line2d_10"/>
   <g id="patch_3">
    <path d="M 57.6 210.24 
L 57.6 138.816 
" style="fill:none;stroke:#000000;stroke-linecap:square;stroke-linejoin:miter;stroke-width:0.8;"/>
   </g>
   <g id="patch_4">
    <path d="M 414.72 210.24 
L 414.72 138.816 
" style="fill:none;stroke:#000000;stroke-linecap:square;stroke-linejoin:miter;stroke-width:0.8;"/>
   </g>
   <g id="patch_5">
    <path d="M 57.6 210.24 
L 414.72 210.24 
" style="fill:none;stroke:#000000;stroke-linecap:square;stroke-linejoin:miter;stroke-width:0.8;"/>
   </g>
   <g id="patch_6">
    <path d="M 57.6 138.816 
L 414.72 138.816 
" style="fill:none;stroke:#000000;stroke-linecap:square;stroke-linejoin:miter;stroke-width:0.8;"/>
   </g>
  </g>
 </g>
 <defs>
  <clipPath id="pc00bd2552c">
   <rect height="71.424" width="357.12" x="57.6" y="138.816"/>
  </clipPath>
 </defs>
</svg>
